<svg xmlns="http://www.w3.org/2000/svg" viewBox="133.0 81.0 401.0 451.0" fill="currentColor" fill-rule="evenodd">
  <style>
    path {
      fill-rule: evenodd;
    }
    .boat-group {
      transform-origin: 333px 400px;
      animation: sail-float 3.5s ease-in-out infinite;
    }
    .waves-group path {
      animation: wave-ripple 6s ease-in-out infinite;
    }
    .waves-group path:nth-child(even) {
      animation-delay: -3s;
    }
    @keyframes sail-float {
      0%, 100% {
        transform: translateY(0) rotate(0deg);
      }
      50% {
        transform: translateY(-5px) rotate(1.5deg);
      }
    }
    @keyframes wave-ripple {
      0%, 100% {
        transform: translateX(0) scaleY(1);
      }
      50% {
        transform: translateX(8px) scaleY(0.95);
      }
    }
  </style>
  <g class="boat-group">
    <path d="M 368 94 L 369 95 Z" />
    <path d="M 367 96 L 368 97 Z" />
    <path d="M 366 98 L 367 99 Z" />
    <path d="M 368 98 L 369 99 Z" />
    <path d="M 365 100 L 366 101 Z" />
    <path d="M 367 100 L 368 101 Z" />
    <path d="M 364 102 L 365 103 Z" />
    <path d="M 366 102 L 367 103 Z" />
    <path d="M 368 103 L 327 198 L 368 220 L 369 104 Z" />
    <path d="M 359 112 L 360 113 Z" />
    <path d="M 358 115 L 359 116 Z" />
    <path d="M 357 117 L 358 118 Z" />
    <path d="M 356 119 L 357 120 Z" />
    <path d="M 355 121 L 356 122 Z" />
    <path d="M 354 123 L 355 124 Z" />
    <path d="M 353 125 L 354 126 Z" />
    <path d="M 352 127 L 353 128 Z" />
    <path d="M 351 129 L 352 130 Z" />
    <path d="M 350 131 L 351 132 Z" />
    <path d="M 349 133 L 350 134 Z" />
    <path d="M 349 135 L 350 136 Z" />
    <path d="M 347 137 L 348 138 Z" />
    <path d="M 347 139 L 348 140 Z" />
    <path d="M 346 141 L 347 142 Z" />
    <path d="M 345 143 L 346 144 Z" />
    <path d="M 344 145 L 345 146 Z" />
    <path d="M 370 145 L 371 146 Z" />
    <path d="M 372 146 L 373 147 Z" />
    <path d="M 343 147 L 344 148 Z" />
    <path d="M 370 148 L 371 149 Z" />
    <path d="M 372 148 L 371 213 L 410 268 L 413 269 L 412 260 L 402 214 L 386 172 L 373 149 Z" />
    <path d="M 374 148 L 375 149 Z" />
    <path d="M 342 149 L 343 150 Z" />
    <path d="M 375 150 L 376 151 Z" />
    <path d="M 341 151 L 342 152 Z" />
    <path d="M 377 151 L 378 152 Z" />
    <path d="M 340 153 L 341 154 Z" />
    <path d="M 377 153 L 378 154 Z" />
    <path d="M 379 153 L 380 154 Z" />
    <path d="M 339 155 L 340 156 Z" />
    <path d="M 379 155 L 380 156 Z" />
    <path d="M 381 155 L 382 156 Z" />
    <path d="M 338 157 L 339 158 Z" />
    <path d="M 340 157 L 341 158 Z" />
    <path d="M 380 157 L 381 158 Z" />
    <path d="M 383 157 L 384 158 Z" />
    <path d="M 337 159 L 338 160 Z" />
    <path d="M 339 159 L 340 160 Z" />
    <path d="M 381 159 L 382 160 Z" />
    <path d="M 384 159 L 382 160 L 394 184 L 406 219 L 416 276 L 506 401 L 508 399 L 474 306 L 450 254 L 421 206 L 385 160 Z" />
    <path d="M 336 161 L 337 162 Z" />
    <path d="M 335 163 L 336 164 Z" />
    <path d="M 334 165 L 335 166 Z" />
    <path d="M 336 165 L 335 167 L 337 166 Z" />
    <path d="M 332 168 L 333 169 Z" />
    <path d="M 334 169 L 333 171 L 335 170 Z" />
    <path d="M 331 172 L 332 173 Z" />
    <path d="M 324 199 L 325 200 Z" />
    <path d="M 326 200 L 327 201 Z" />
    <path d="M 323 201 L 324 202 Z" />
    <path d="M 328 201 L 329 202 Z" />
    <path d="M 330 202 L 331 203 Z" />
    <path d="M 322 203 L 323 204 Z" />
    <path d="M 332 203 L 333 204 Z" />
    <path d="M 321 205 L 322 206 Z" />
    <path d="M 334 205 L 327 201 L 324 203 L 286 293 L 366 339 L 368 338 L 369 226 L 335 206 Z" />
    <path d="M 370 215 L 371 216 Z" />
    <path d="M 370 217 L 371 218 Z" />
    <path d="M 372 218 L 373 219 Z" />
    <path d="M 369 219 L 370 220 Z" />
    <path d="M 371 220 L 372 221 Z" />
    <path d="M 373 220 L 374 221 Z" />
    <path d="M 368 221 L 369 222 Z" />
    <path d="M 370 222 L 371 223 Z" />
    <path d="M 372 222 L 371 410 L 373 420 L 377 419 L 393 400 L 394 379 L 390 288 L 382 245 L 373 223 Z" />
    <path d="M 374 222 L 375 223 Z" />
    <path d="M 375 224 L 376 225 Z" />
    <path d="M 377 225 L 378 226 Z" />
    <path d="M 377 227 L 378 228 Z" />
    <path d="M 379 228 L 380 229 Z" />
    <path d="M 378 230 L 379 231 Z" />
    <path d="M 380 230 L 381 231 Z" />
    <path d="M 379 232 L 380 233 Z" />
    <path d="M 381 232 L 380 234 L 382 233 Z" />
    <path d="M 383 234 L 384 235 Z" />
    <path d="M 380 236 L 381 237 Z" />
    <path d="M 384 236 L 382 234 L 381 236 L 388 260 L 395 317 L 395 396 L 407 387 L 415 339 L 415 304 L 405 277 L 384 237 Z" />
    <path d="M 391 245 L 392 246 Z" />
    <path d="M 392 247 L 393 248 Z" />
    <path d="M 393 249 L 394 250 Z" />
    <path d="M 394 251 L 395 252 Z" />
    <path d="M 396 252 L 397 253 Z" />
    <path d="M 396 254 L 397 255 Z" />
    <path d="M 398 255 L 399 256 Z" />
    <path d="M 397 257 L 398 258 Z" />
    <path d="M 399 257 L 400 258 Z" />
    <path d="M 398 259 L 399 260 Z" />
    <path d="M 401 259 L 399 260 L 413 293 L 415 293 L 414 277 L 402 260 Z" />
    <path d="M 412 271 L 413 272 Z" />
    <path d="M 413 273 L 414 274 Z" />
    <path d="M 415 278 L 416 279 Z" />
    <path d="M 415 280 L 416 281 Z" />
    <path d="M 417 281 L 418 282 Z" />
    <path d="M 416 283 L 417 284 Z" />
    <path d="M 418 283 L 417 345 L 409 387 L 479 397 L 507 407 L 419 284 Z" />
    <path d="M 284 294 L 285 295 Z" />
    <path d="M 413 295 L 414 296 Z" />
    <path d="M 283 296 L 284 297 Z" />
    <path d="M 285 296 L 286 297 Z" />
    <path d="M 287 296 L 288 297 Z" />
    <path d="M 415 296 L 416 297 Z" />
    <path d="M 282 298 L 283 299 Z" />
    <path d="M 289 298 L 284 298 L 264 345 L 368 403 L 369 344 L 290 299 Z" />
    <path d="M 414 298 L 415 299 Z" />
    <path d="M 415 300 L 416 301 Z" />
    <path d="M 216 334 L 226 335 L 230 342 L 229 348 L 218 354 L 177 352 L 220 351 L 226 347 L 227 341 L 222 336 L 211 340 L 215 334 Z" />
    <path d="M 368 339 L 369 340 Z" />
    <path d="M 168 341 L 203 342 L 202 345 L 164 344 L 167 341 Z" />
    <path d="M 262 346 L 263 347 Z" />
    <path d="M 261 348 L 262 349 Z" />
    <path d="M 263 348 L 264 349 Z" />
    <path d="M 265 348 L 266 349 Z" />
    <path d="M 155 350 L 171 351 L 171 354 L 146 355 L 143 353 L 154 350 Z" />
    <path d="M 260 350 L 261 351 Z" />
    <path d="M 267 350 L 262 350 L 239 404 L 360 406 L 362 404 L 268 351 Z" />
    <path d="M 160 358 L 212 360 L 217 368 L 211 375 L 205 375 L 200 371 L 202 369 L 205 372 L 211 372 L 214 366 L 209 362 L 157 361 L 159 358 Z" />
    <path d="M 407 388 L 408 389 Z" />
    <path d="M 409 389 L 410 390 Z" />
    <path d="M 411 389 L 412 390 Z" />
    <path d="M 413 389 L 414 390 Z" />
    <path d="M 415 389 L 416 390 Z" />
    <path d="M 405 390 L 406 391 Z" />
    <path d="M 417 390 L 418 391 Z" />
    <path d="M 419 390 L 420 391 Z" />
    <path d="M 421 390 L 422 391 Z" />
    <path d="M 423 390 L 424 391 Z" />
    <path d="M 425 391 L 426 392 Z" />
    <path d="M 427 391 L 428 392 Z" />
    <path d="M 429 391 L 430 392 Z" />
    <path d="M 431 391 L 432 392 Z" />
    <path d="M 433 391 L 434 392 Z" />
    <path d="M 403 392 L 404 393 Z" />
    <path d="M 435 392 L 436 393 Z" />
    <path d="M 437 392 L 438 393 Z" />
    <path d="M 439 392 L 440 393 Z" />
    <path d="M 441 392 L 442 393 Z" />
    <path d="M 443 393 L 444 394 Z" />
    <path d="M 445 393 L 446 394 Z" />
    <path d="M 447 393 L 448 394 Z" />
    <path d="M 401 394 L 402 395 Z" />
    <path d="M 449 394 L 450 395 Z" />
    <path d="M 451 394 L 452 395 Z" />
    <path d="M 453 394 L 454 395 Z" />
    <path d="M 455 395 L 456 396 Z" />
    <path d="M 457 395 L 458 396 Z" />
    <path d="M 459 395 L 460 396 Z" />
    <path d="M 461 395 L 462 396 Z" />
    <path d="M 398 396 L 399 397 Z" />
    <path d="M 450 396 L 408 390 L 400 397 L 435 407 L 458 419 L 460 418 L 450 397 Z" />
    <path d="M 452 396 L 453 397 Z" />
    <path d="M 463 396 L 464 397 Z" />
    <path d="M 465 396 L 466 397 Z" />
    <path d="M 467 396 L 468 397 Z" />
    <path d="M 469 397 L 470 398 Z" />
    <path d="M 471 397 L 472 398 Z" />
    <path d="M 394 398 L 395 399 Z" />
    <path d="M 396 398 L 397 399 Z" />
    <path d="M 398 398 L 399 399 Z" />
    <path d="M 452 398 L 453 399 Z" />
    <path d="M 473 398 L 474 399 Z" />
    <path d="M 475 398 L 476 399 Z" />
    <path d="M 477 398 L 478 399 Z" />
    <path d="M 479 399 L 480 400 Z" />
    <path d="M 394 400 L 395 401 Z" />
    <path d="M 396 400 L 397 401 Z" />
    <path d="M 398 400 L 399 401 Z" />
    <path d="M 400 400 L 401 401 Z" />
    <path d="M 402 400 L 403 401 Z" />
    <path d="M 404 400 L 405 401 Z" />
    <path d="M 453 400 L 454 401 Z" />
    <path d="M 481 400 L 482 401 Z" />
    <path d="M 483 400 L 484 401 Z" />
    <path d="M 406 401 L 407 402 Z" />
    <path d="M 408 401 L 409 402 Z" />
    <path d="M 410 401 L 411 402 Z" />
    <path d="M 485 401 L 486 402 Z" />
    <path d="M 487 401 L 488 402 Z" />
    <path d="M 392 402 L 393 403 Z" />
    <path d="M 412 402 L 413 403 Z" />
    <path d="M 454 402 L 455 403 Z" />
    <path d="M 489 402 L 490 403 Z" />
    <path d="M 508 402 L 509 403 Z" />
    <path d="M 414 403 L 415 404 Z" />
    <path d="M 416 403 L 417 404 Z" />
    <path d="M 491 403 L 492 404 Z" />
    <path d="M 363 404 L 364 405 Z" />
    <path d="M 368 404 L 369 405 Z" />
    <path d="M 391 404 L 392 405 Z" />
    <path d="M 418 404 L 419 405 Z" />
    <path d="M 420 404 L 421 405 Z" />
    <path d="M 455 404 L 456 405 Z" />
    <path d="M 493 404 L 494 405 Z" />
    <path d="M 495 404 L 496 405 Z" />
    <path d="M 508 404 L 509 405 Z" />
    <path d="M 365 405 L 366 406 Z" />
    <path d="M 422 405 L 423 406 Z" />
    <path d="M 424 405 L 425 406 Z" />
    <path d="M 497 405 L 498 406 Z" />
    <path d="M 389 406 L 390 407 Z" />
    <path d="M 426 406 L 427 407 Z" />
    <path d="M 456 406 L 457 407 Z" />
    <path d="M 508 406 L 509 407 Z" />
    <path d="M 510 406 L 511 407 Z" />
    <path d="M 428 407 L 429 408 Z" />
    <path d="M 430 407 L 431 408 Z" />
    <path d="M 499 407 L 472 398 L 454 396 L 463 420 L 469 422 L 508 415 L 507 411 L 500 408 Z" />
    <path d="M 388 408 L 389 409 Z" />
    <path d="M 432 408 L 433 409 Z" />
    <path d="M 507 408 L 508 409 Z" />
    <path d="M 509 408 L 510 409 Z" />
    <path d="M 434 409 L 435 410 Z" />
    <path d="M 511 409 L 512 410 Z" />
    <path d="M 386 410 L 387 411 Z" />
    <path d="M 436 410 L 409 402 L 396 401 L 376 423 L 378 425 L 403 425 L 416 430 L 458 424 L 454 419 L 437 411 Z" />
    <path d="M 510 411 L 511 412 Z" />
    <path d="M 512 412 L 513 413 Z" />
    <path d="M 510 414 L 511 415 Z" />
    <path d="M 512 414 L 513 415 Z" />
    <path d="M 504 416 L 505 417 Z" />
    <path d="M 506 416 L 507 417 Z" />
    <path d="M 508 416 L 509 417 Z" />
    <path d="M 510 416 L 511 417 Z" />
    <path d="M 500 417 L 501 418 Z" />
    <path d="M 495 418 L 496 419 Z" />
    <path d="M 497 418 L 498 419 Z" />
    <path d="M 460 419 L 461 420 Z" />
    <path d="M 460 421 L 461 422 Z" />
    <path d="M 372 422 L 373 423 Z" />
    <path d="M 462 422 L 463 423 Z" />
    <path d="M 372 424 L 373 425 Z" />
    <path d="M 374 424 L 375 425 Z" />
    <path d="M 295 425 L 296 426 Z" />
    <path d="M 297 425 L 298 426 Z" />
    <path d="M 299 425 L 300 426 Z" />
    <path d="M 301 425 L 302 426 Z" />
    <path d="M 303 425 L 304 426 Z" />
    <path d="M 305 425 L 306 426 Z" />
    <path d="M 307 425 L 308 426 Z" />
    <path d="M 309 425 L 310 426 Z" />
    <path d="M 311 425 L 312 426 Z" />
    <path d="M 313 425 L 314 426 Z" />
    <path d="M 315 425 L 316 426 Z" />
    <path d="M 317 425 L 318 426 Z" />
    <path d="M 319 425 L 320 426 Z" />
    <path d="M 321 425 L 322 426 Z" />
    <path d="M 323 425 L 324 426 Z" />
    <path d="M 325 425 L 326 426 Z" />
    <path d="M 327 425 L 328 426 Z" />
    <path d="M 329 425 L 330 426 Z" />
    <path d="M 331 425 L 332 426 Z" />
    <path d="M 333 425 L 334 426 Z" />
    <path d="M 335 425 L 336 426 Z" />
    <path d="M 337 425 L 338 426 Z" />
    <path d="M 339 425 L 340 426 Z" />
    <path d="M 341 425 L 342 426 Z" />
    <path d="M 343 425 L 344 426 Z" />
    <path d="M 345 425 L 346 426 Z" />
    <path d="M 347 425 L 348 426 Z" />
    <path d="M 349 425 L 350 426 Z" />
    <path d="M 351 425 L 352 426 Z" />
    <path d="M 292 426 L 293 427 Z" />
    <path d="M 353 426 L 354 427 Z" />
    <path d="M 355 426 L 356 427 Z" />
    <path d="M 357 426 L 358 427 Z" />
    <path d="M 359 426 L 360 427 Z" />
    <path d="M 361 426 L 362 427 Z" />
    <path d="M 363 426 L 364 427 Z" />
    <path d="M 365 426 L 366 427 Z" />
    <path d="M 367 426 L 368 427 Z" />
    <path d="M 369 426 L 370 427 Z" />
    <path d="M 371 426 L 372 427 Z" />
    <path d="M 373 426 L 374 427 Z" />
    <path d="M 375 426 L 376 427 Z" />
    <path d="M 377 426 L 378 427 Z" />
    <path d="M 379 426 L 380 427 Z" />
    <path d="M 381 426 L 382 427 Z" />
    <path d="M 383 426 L 384 427 Z" />
    <path d="M 385 426 L 386 427 Z" />
    <path d="M 387 426 L 388 427 Z" />
    <path d="M 389 426 L 390 427 Z" />
    <path d="M 391 426 L 392 427 Z" />
    <path d="M 393 426 L 394 427 Z" />
    <path d="M 395 426 L 396 427 Z" />
    <path d="M 397 426 L 398 427 Z" />
    <path d="M 399 426 L 400 427 Z" />
    <path d="M 401 426 L 402 427 Z" />
    <path d="M 403 427 L 404 428 Z" />
    <path d="M 290 428 L 291 429 Z" />
    <path d="M 405 428 L 294 427 L 278 444 L 376 436 L 407 432 L 406 429 Z" />
    <path d="M 305 430 L 307 434 L 326 432 L 335 434 L 301 437 L 293 437 L 293 435 L 302 434 L 304 430 Z" />
    <path d="M 409 429 L 410 430 Z" />
    <path d="M 411 430 L 412 431 Z" />
    <path d="M 413 430 L 414 431 Z" />
    <path d="M 492 436 L 493 437 Z" />
    <path d="M 492 438 L 493 439 Z" />
    <path d="M 274 445 L 275 446 Z" />
  </g>
  <g class="waves-group">
    <path d="M 370 91 L 371 143 L 388 159 L 415 193 L 453 254 L 478 309 L 515 412 L 511 424 L 464 476 L 474 479 L 489 468 L 508 480 L 524 477 L 518 482 L 503 481 L 489 471 L 477 481 L 468 481 L 447 469 L 435 466 L 424 467 L 425 464 L 437 464 L 461 474 L 490 442 L 490 439 L 331 456 L 200 463 L 199 465 L 203 468 L 233 479 L 389 479 L 404 472 L 430 475 L 432 479 L 407 474 L 394 481 L 381 482 L 234 482 L 201 470 L 195 463 L 195 454 L 206 429 L 369 91 Z" />
    <path d="M 334 173 L 332 172 L 328 180 L 200 449 L 211 451 L 273 445 L 295 424 L 371 424 L 368 408 L 232 406 L 238 401 L 334 174 Z" />
    <path d="M 511 418 L 380 438 L 206 453 L 199 454 L 197 457 L 198 460 L 252 459 L 338 453 L 434 441 L 482 438 L 498 433 L 511 419 Z" />
    <path d="M 197 451 L 198 452 Z" />
    <path d="M 196 461 L 197 462 Z" />
    <path d="M 150 477 L 155 479 L 195 478 L 201 482 L 191 480 L 159 482 L 149 480 L 149 477 Z" />
    <path d="M 318 491 L 353 492 L 339 495 L 307 494 L 309 491 L 317 490 Z" />
    <path d="M 244 491 L 288 494 L 288 497 L 257 493 L 231 496 L 191 494 L 178 496 L 177 494 L 182 492 L 223 494 L 243 491 Z" />
    <path d="M 384 491 L 394 491 L 393 494 L 382 494 L 383 491 Z" />
    <path d="M 430 500 L 445 504 L 446 507 L 429 503 L 419 507 L 400 504 L 387 509 L 371 505 L 356 510 L 352 510 L 353 507 L 370 503 L 389 506 L 399 501 L 421 504 L 429 500 Z" />
    <path d="M 249 505 L 285 507 L 328 505 L 334 506 L 333 509 L 317 507 L 241 509 L 248 505 Z" />
    <path d="M 268 517 L 308 518 L 309 520 L 305 522 L 260 521 L 261 518 L 267 517 Z" />
  </g>
</svg>
